<?xml version="1.0" encoding="utf-8"?>
<!-- Generator: Adobe Illustrator 16.0.0, SVG Export Plug-In . SVG Version: 6.00 Build 0)  -->
<!DOCTYPE svg PUBLIC "-//W3C//DTD SVG 1.1//EN" "http://www.w3.org/Graphics/SVG/1.1/DTD/svg11.dtd">
<svg version="1.1" id="Layer_1" xmlns="http://www.w3.org/2000/svg" xmlns:xlink="http://www.w3.org/1999/xlink" x="0px" y="0px"
	 width="600px" height="500px" viewBox="0 0 600 500" enable-background="new 0 0 600 500" xml:space="preserve">
<path fill="none" stroke="#A7A9AC" stroke-miterlimit="10" d="M244.333,180.333c0,5.523-4.478,10-10,10h-180
	c-5.523,0-10-4.477-10-10v-80c0-5.523,4.477-10,10-10h180c5.522,0,10,4.477,10,10V180.333z"/>
<rect x="55.667" y="106.667" fill="#41BA8E" width="112" height="12.5"/>
<rect x="55.667" y="61.667" fill="#E4745D" width="73.833" height="12.5"/>
<rect x="370.166" y="61.667" fill="#E4745D" width="73.834" height="12.5"/>
<rect x="55.667" y="177.5" fill="#6B6B6B" width="44.167" height="6.833"/>
<rect x="55.667" y="134.917" fill="#939598" width="172.167" height="5.667"/>
<rect x="55.667" y="147.083" fill="#939598" width="130.833" height="5.667"/>
<circle fill="#939598" cx="215.729" cy="180.917" r="1.479"/>
<circle fill="#939598" cx="221.042" cy="180.917" r="1.479"/>
<path fill="none" stroke="#A7A9AC" stroke-miterlimit="10" d="M558.833,180.333c0,5.523-4.478,10-10,10h-180
	c-5.522,0-10-4.477-10-10v-80c0-5.523,4.478-10,10-10h180c5.522,0,10,4.477,10,10V180.333z"/>
<rect x="370.166" y="106.667" fill="#41BA8E" width="124.334" height="12.5"/>
<rect x="370.166" y="177.5" fill="#6B6B6B" width="44.168" height="6.833"/>
<rect x="370.166" y="134.917" fill="#939598" width="172.168" height="5.667"/>
<rect x="370.166" y="147.083" fill="#939598" width="56" height="5.667"/>
<circle fill="#939598" cx="530.229" cy="180.917" r="1.479"/>
<circle fill="#939598" cx="535.542" cy="180.917" r="1.479"/>
<circle fill="#939598" cx="226.354" cy="180.917" r="1.479"/>
<path fill="none" stroke="#A7A9AC" stroke-miterlimit="10" d="M244.333,308.834c0,5.522-4.478,10-10,10h-180
	c-5.523,0-10-4.478-10-10v-80c0-5.523,4.477-10,10-10h180c5.522,0,10,4.477,10,10V308.834z"/>
<rect x="55.667" y="235.167" fill="#41BA8E" width="80.833" height="12.5"/>
<rect x="55.667" y="306" fill="#6B6B6B" width="44.167" height="6.834"/>
<rect x="55.667" y="263.416" fill="#939598" width="172.167" height="5.668"/>
<rect x="55.667" y="275.583" fill="#939598" width="172.167" height="5.667"/>
<circle fill="#939598" cx="215.729" cy="309.417" r="1.479"/>
<circle fill="#939598" cx="221.042" cy="309.417" r="1.479"/>
<circle fill="#939598" cx="226.354" cy="309.417" r="1.479"/>
<path opacity="0.5" fill="#7F7F7F" d="M-37,551.467C-37,563.358-46.642,573-58.533,573h-602.934
	c-11.892,0-21.533-9.642-21.533-21.533V-51.467C-683-63.358-673.358-73-661.467-73h602.934C-46.642-73-37-63.358-37-51.467V551.467z
	"/>
<g>
	<path fill="#E6E7E8" d="M995.334,314.666c0,5.523-4.478,10-10,10h-280c-5.522,0-10-4.477-10-10v-280c0-5.522,4.478-10,10-10h280
		c5.522,0,10,4.478,10,10V314.666z"/>
	<rect x="720.5" y="43.833" fill="#41BA8E" width="112" height="12.5"/>
	<rect x="720.5" y="81.583" fill="#939598" width="241.834" height="5.667"/>
	<rect x="720.5" y="99.333" fill="#939598" width="241.834" height="5.667"/>
	<rect x="720.5" y="117.083" fill="#939598" width="241.834" height="5.667"/>
	<rect x="720.5" y="134.833" fill="#939598" width="241.834" height="5.667"/>
	<rect x="720.5" y="152.583" fill="#939598" width="241.834" height="5.667"/>
	<rect x="720.5" y="170.333" fill="#939598" width="157.334" height="5.667"/>
	<rect x="935.834" y="298.834" fill="#F37374" width="37.833" height="14"/>
	<rect x="887.668" y="298.834" fill="#939598" width="37.833" height="14"/>
	<rect x="839.502" y="298.834" fill="#939598" width="37.833" height="14"/>
</g>
</svg>
