<?xml version="1.0" encoding="utf-8"?>
<!-- Generator: Adobe Illustrator 16.0.0, SVG Export Plug-In . SVG Version: 6.00 Build 0)  -->
<!DOCTYPE svg PUBLIC "-//W3C//DTD SVG 1.1//EN" "http://www.w3.org/Graphics/SVG/1.1/DTD/svg11.dtd">
<svg version="1.1" id="Capa_1" xmlns="http://www.w3.org/2000/svg" xmlns:xlink="http://www.w3.org/1999/xlink" x="0px" y="0px"
	 width="500px" height="500px" viewBox="0 0 500 500" enable-background="new 0 0 500 500" xml:space="preserve">
<path fill="#7A7A7A" d="M495.454,90.909C495.454,40.782,454.673,0,404.546,0c-40.628,0-75.101,26.8-86.719,63.636H52.136
	c-26.236,0-47.591,21.354-47.591,47.591V452.4c0,26.244,21.354,47.6,47.591,47.6h341.171c26.246,0,47.593-21.354,47.593-47.591
	V174.173C472.973,160.109,495.454,128.1,495.454,90.909z M422.728,452.409c0,16.218-13.19,29.409-29.408,29.409H52.136
	c-16.218,0-29.409-13.191-29.409-29.409V111.228c0-16.218,13.191-29.409,29.409-29.409h261.955
	c-0.291,2.991-0.454,6.018-0.454,9.091c0,50.127,40.781,90.909,90.909,90.909c6.228,0,12.31-0.637,18.182-1.836V452.409z
	 M428.673,159.437c-1.8,0.636-3.618,1.182-5.445,1.682c-0.326,0.091-0.663,0.173-0.99,0.254c-1.609,0.409-3.229,0.764-4.854,1.064
	c-0.836,0.154-1.69,0.264-2.536,0.391c-1.219,0.182-2.444,0.364-3.664,0.482c-2.189,0.191-4.398,0.327-6.636,0.327
	c-40.101,0-72.728-32.627-72.728-72.727c0-5.273,0.627-10.7,1.873-16.155c7.372-32.345,36.309-56.573,70.854-56.573
	c40.101,0,72.728,32.627,72.728,72.728C477.272,122.545,456.928,149.455,428.673,159.437z"/>
</svg>
